<?xml version="1.0" encoding="utf-8"?>
<!-- Generator: Circuit Diagram, cdlibrary.dll 4.0.0.0 -->
<!DOCTYPE svg PUBLIC "-//W3C//DTD SVG 1.1//EN" "http://www.w3.org/Graphics/SVG/1.1/DTD/svg11.dtd">
<svg version="1.1" width="420" height="400" xmlns="http://www.w3.org/2000/svg">
	<line x1="180" y1="60" x2="180" y2="330" style="stroke:rgba(255, 0, 0, 255);stroke-linecap:square;stroke-width:2" />
	<line x1="160" y1="170" x2="200" y2="170" style="stroke:rgba(0, 0, 0, 255);stroke-linecap:square;stroke-width:2" />
	<line x1="200" y1="170" x2="200" y2="200" style="stroke:rgba(0, 0, 0, 255);stroke-linecap:square;stroke-width:2" />
	<line x1="200" y1="200" x2="280" y2="200" style="stroke:rgba(0, 0, 0, 255);stroke-linecap:square;stroke-width:2" />
	<text x="130" y="355" style="fill: rgba(255, 0, 0, 255);font-family:Arial;font-size:12px;text-anchor:middle" dominant-baseline="hanging" transform="rotate(0, 130, 355)">+5V</text>
	<line x1="130" y1="330" x2="130" y2="347" style="stroke:rgba(255, 0, 0, 255);stroke-linecap:square;stroke-width:2" />
	<ellipse cx="130" cy="350" rx="3" ry="3" style="fill-opacity:0;fill:rgba(255, 0, 0, 255);stroke:rgba(255, 0, 0, 255);stroke-width:2" />
	<line x1="130" y1="330" x2="180" y2="330" style="stroke:rgba(255, 0, 0, 255);stroke-linecap:square;stroke-width:2" />
	<line x1="160" y1="60" x2="180" y2="60" style="stroke:rgba(255, 0, 0, 255);stroke-linecap:square;stroke-width:2" />
	<text x="280" y="355" style="fill: rgba(255, 0, 0, 255);font-family:Arial;font-size:12px;text-anchor:middle" dominant-baseline="hanging" transform="rotate(0, 280, 355)">+3.3V</text>
	<line x1="280" y1="330" x2="280" y2="347" style="stroke:rgba(255, 0, 0, 255);stroke-linecap:square;stroke-width:2" />
	<ellipse cx="280" cy="350" rx="3" ry="3" style="fill-opacity:0;fill:rgba(255, 0, 0, 255);stroke:rgba(255, 0, 0, 255);stroke-width:2" />
	<line x1="220" y1="330" x2="280" y2="330" style="stroke:rgba(255, 0, 0, 255);stroke-linecap:square;stroke-width:2" />
	<line x1="220" y1="260" x2="220" y2="330" style="stroke:rgba(255, 0, 0, 255);stroke-linecap:square;stroke-width:2" />
	<text x="210" y="355" style="fill: rgba(0, 0, 0, 255);font-family:Arial;font-size:12px;text-anchor:middle" dominant-baseline="hanging" transform="rotate(0, 210, 355)">Ground</text>
	<line x1="210" y1="270" x2="210" y2="347" style="stroke:rgba(0, 0, 0, 255);stroke-linecap:square;stroke-width:2" />
	<ellipse cx="210" cy="350" rx="3" ry="3" style="fill-opacity:0;fill:rgba(0, 0, 0, 255);stroke:rgba(0, 0, 0, 255);stroke-width:2" />
	<line x1="250" y1="290" x2="280" y2="290" style="stroke:rgba(0, 0, 0, 255);stroke-linecap:square;stroke-width:2" />
	<line x1="250" y1="150" x2="250" y2="290" style="stroke:rgba(0, 0, 0, 255);stroke-linecap:square;stroke-width:2" />
	<line x1="260" y1="280" x2="280" y2="280" style="stroke:rgba(0, 0, 0, 255);stroke-linecap:square;stroke-width:2" />
	<line x1="260" y1="160" x2="260" y2="280" style="stroke:rgba(0, 0, 0, 255);stroke-linecap:square;stroke-width:2" />
	<line x1="210" y1="270" x2="280" y2="270" style="stroke:rgba(0, 0, 0, 255);stroke-linecap:square;stroke-width:2" />
	<line x1="210" y1="210" x2="210" y2="270" style="stroke:rgba(0, 0, 0, 255);stroke-linecap:square;stroke-width:2" />
	<line x1="220" y1="260" x2="280" y2="260" style="stroke:rgba(255, 0, 0, 255);stroke-linecap:square;stroke-width:2" />
	<line x1="220" y1="240" x2="220" y2="260" style="stroke:rgba(255, 0, 0, 255);stroke-linecap:square;stroke-width:2" />
	<text x="340" y="240" style="font-family:Arial;font-size:11px;text-anchor:middle" dominant-baseline="middle" transform="rotate(0, 340, 240)">BMP180</text>
	<rect x="290" y="250" width="100" height="50" style="fill-opacity:0;fill:rgb(0, 0, 0);stroke:rgb(0, 0, 0);stroke-width:2" />
	<line x1="280" y1="260" x2="290" y2="260" style="stroke:rgb(0, 0, 0);stroke-linecap:square;stroke-width:2" />
	<text x="294" y="260" style="font-family:Arial;font-size:11px;text-anchor:start" dominant-baseline="middle" transform="rotate(0, 294, 260)">3V3</text>
	<line x1="280" y1="270" x2="290" y2="270" style="stroke:rgb(0, 0, 0);stroke-linecap:square;stroke-width:2" />
	<text x="294" y="270" style="font-family:Arial;font-size:11px;text-anchor:start" dominant-baseline="middle" transform="rotate(0, 294, 270)">GND</text>
	<line x1="280" y1="280" x2="290" y2="280" style="stroke:rgb(0, 0, 0);stroke-linecap:square;stroke-width:2" />
	<text x="294" y="280" style="font-family:Arial;font-size:11px;text-anchor:start" dominant-baseline="middle" transform="rotate(0, 294, 280)">SCL</text>
	<line x1="280" y1="290" x2="290" y2="290" style="stroke:rgb(0, 0, 0);stroke-linecap:square;stroke-width:2" />
	<text x="294" y="290" style="font-family:Arial;font-size:11px;text-anchor:start" dominant-baseline="middle" transform="rotate(0, 294, 290)">SDA</text>
	<line x1="220" y1="190" x2="220" y2="240" style="stroke:rgba(255, 0, 0, 255);stroke-linecap:square;stroke-width:2" />
	<line x1="220" y1="190" x2="280" y2="190" style="stroke:rgba(255, 0, 0, 255);stroke-linecap:square;stroke-width:2" />
	<line x1="220" y1="90" x2="220" y2="190" style="stroke:rgba(255, 0, 0, 255);stroke-linecap:square;stroke-width:2" />
	<line x1="210" y1="210" x2="280" y2="210" style="stroke:rgba(0, 0, 0, 255);stroke-linecap:square;stroke-width:2" />
	<line x1="210" y1="100" x2="210" y2="210" style="stroke:rgba(0, 0, 0, 255);stroke-linecap:square;stroke-width:2" />
	<text x="340" y="170" style="font-family:Arial;font-size:11px;text-anchor:middle" dominant-baseline="middle" transform="rotate(0, 340, 170)">DHT11</text>
	<rect x="290" y="180" width="100" height="40" style="fill-opacity:0;fill:rgb(0, 0, 0);stroke:rgb(0, 0, 0);stroke-width:2" />
	<line x1="280" y1="190" x2="290" y2="190" style="stroke:rgb(0, 0, 0);stroke-linecap:square;stroke-width:2" />
	<text x="294" y="190" style="font-family:Arial;font-size:11px;text-anchor:start" dominant-baseline="middle" transform="rotate(0, 294, 190)">3V3</text>
	<line x1="280" y1="200" x2="290" y2="200" style="stroke:rgb(0, 0, 0);stroke-linecap:square;stroke-width:2" />
	<text x="294" y="200" style="font-family:Arial;font-size:11px;text-anchor:start" dominant-baseline="middle" transform="rotate(0, 294, 200)">Data</text>
	<line x1="280" y1="210" x2="290" y2="210" style="stroke:rgb(0, 0, 0);stroke-linecap:square;stroke-width:2" />
	<text x="294" y="210" style="font-family:Arial;font-size:11px;text-anchor:start" dominant-baseline="middle" transform="rotate(0, 294, 210)">GND</text>
	<line x1="210" y1="100" x2="280" y2="100" style="stroke:rgba(0, 0, 0, 255);stroke-linecap:square;stroke-width:2" />
	<line x1="210" y1="70" x2="210" y2="100" style="stroke:rgba(0, 0, 0, 255);stroke-linecap:square;stroke-width:2" />
	<line x1="160" y1="70" x2="210" y2="70" style="stroke:rgba(0, 0, 0, 255);stroke-linecap:square;stroke-width:2" />
	<line x1="220" y1="90" x2="280" y2="90" style="stroke:rgba(255, 0, 0, 255);stroke-linecap:square;stroke-width:2" />
	<line x1="250" y1="70" x2="280" y2="70" style="stroke:rgba(0, 0, 0, 255);stroke-linecap:square;stroke-width:2" />
	<line x1="250" y1="70" x2="250" y2="150" style="stroke:rgba(0, 0, 0, 255);stroke-linecap:square;stroke-width:2" />
	<line x1="160" y1="150" x2="250" y2="150" style="stroke:rgba(0, 0, 0, 255);stroke-linecap:square;stroke-width:2" />
	<line x1="260" y1="80" x2="280" y2="80" style="stroke:rgba(0, 0, 0, 255);stroke-linecap:square;stroke-width:2" />
	<line x1="260" y1="80" x2="260" y2="160" style="stroke:rgba(0, 0, 0, 255);stroke-linecap:square;stroke-width:2" />
	<line x1="160" y1="160" x2="260" y2="160" style="stroke:rgba(0, 0, 0, 255);stroke-linecap:square;stroke-width:2" />
	<text x="340" y="50" style="font-family:Arial;font-size:11px;text-anchor:middle" dominant-baseline="middle" transform="rotate(0, 340, 50)">OLED SH-1106</text>
	<rect x="290" y="60" width="100" height="50" style="fill-opacity:0;fill:rgb(0, 0, 0);stroke:rgb(0, 0, 0);stroke-width:2" />
	<line x1="280" y1="70" x2="290" y2="70" style="stroke:rgb(0, 0, 0);stroke-linecap:square;stroke-width:2" />
	<text x="294" y="70" style="font-family:Arial;font-size:11px;text-anchor:start" dominant-baseline="middle" transform="rotate(0, 294, 70)">SDA</text>
	<line x1="280" y1="80" x2="290" y2="80" style="stroke:rgb(0, 0, 0);stroke-linecap:square;stroke-width:2" />
	<text x="294" y="80" style="font-family:Arial;font-size:11px;text-anchor:start" dominant-baseline="middle" transform="rotate(0, 294, 80)">SCL</text>
	<line x1="280" y1="90" x2="290" y2="90" style="stroke:rgb(0, 0, 0);stroke-linecap:square;stroke-width:2" />
	<text x="294" y="90" style="font-family:Arial;font-size:11px;text-anchor:start" dominant-baseline="middle" transform="rotate(0, 294, 90)">3V3</text>
	<line x1="280" y1="100" x2="290" y2="100" style="stroke:rgb(0, 0, 0);stroke-linecap:square;stroke-width:2" />
	<text x="294" y="100" style="font-family:Arial;font-size:11px;text-anchor:start" dominant-baseline="middle" transform="rotate(0, 294, 100)">GND</text>
	<text x="100" y="40" style="fill: rgba(0, 0, 0, 255);font-family:Arial;font-size:11px;text-anchor:middle" dominant-baseline="middle" transform="rotate(0, 100, 40)">NodeMCU ESP WROOM32</text>
	<rect x="50" y="50" width="100" height="200" style="fill-opacity:0;fill:rgba(0, 0, 0, 255);stroke:rgba(0, 0, 0, 255);stroke-width:2" />
	<line x1="40" y1="60" x2="50" y2="60" style="stroke:rgba(0, 0, 0, 255);stroke-linecap:square;stroke-width:2" />
	<text x="54" y="60" style="fill: rgba(0, 0, 0, 255);font-family:Arial;font-size:11px;text-anchor:start" dominant-baseline="middle" transform="rotate(0, 54, 60)">CLK</text>
	<line x1="150" y1="60" x2="160" y2="60" style="stroke:rgba(0, 0, 0, 255);stroke-linecap:square;stroke-width:2" />
	<text x="146" y="60" style="fill: rgba(0, 0, 0, 255);font-family:Arial;font-size:11px;text-anchor:end" dominant-baseline="middle" transform="rotate(0, 146, 60)">V5</text>
	<line x1="40" y1="70" x2="50" y2="70" style="stroke:rgba(0, 0, 0, 255);stroke-linecap:square;stroke-width:2" />
	<text x="54" y="70" style="fill: rgba(0, 0, 0, 255);font-family:Arial;font-size:11px;text-anchor:start" dominant-baseline="middle" transform="rotate(0, 54, 70)">SD0</text>
	<line x1="150" y1="70" x2="160" y2="70" style="stroke:rgba(0, 0, 0, 255);stroke-linecap:square;stroke-width:2" />
	<text x="146" y="70" style="fill: rgba(0, 0, 0, 255);font-family:Arial;font-size:11px;text-anchor:end" dominant-baseline="middle" transform="rotate(0, 146, 70)">GND</text>
	<line x1="40" y1="80" x2="50" y2="80" style="stroke:rgba(0, 0, 0, 255);stroke-linecap:square;stroke-width:2" />
	<text x="54" y="80" style="fill: rgba(0, 0, 0, 255);font-family:Arial;font-size:11px;text-anchor:start" dominant-baseline="middle" transform="rotate(0, 54, 80)">SD1</text>
	<line x1="150" y1="80" x2="160" y2="80" style="stroke:rgba(0, 0, 0, 255);stroke-linecap:square;stroke-width:2" />
	<text x="146" y="80" style="fill: rgba(0, 0, 0, 255);font-family:Arial;font-size:11px;text-anchor:end" dominant-baseline="middle" transform="rotate(0, 146, 80)">SD3</text>
	<line x1="40" y1="90" x2="50" y2="90" style="stroke:rgba(0, 0, 0, 255);stroke-linecap:square;stroke-width:2" />
	<text x="54" y="90" style="fill: rgba(0, 0, 0, 255);font-family:Arial;font-size:11px;text-anchor:start" dominant-baseline="middle" transform="rotate(0, 54, 90)">G15</text>
	<line x1="150" y1="90" x2="160" y2="90" style="stroke:rgba(0, 0, 0, 255);stroke-linecap:square;stroke-width:2" />
	<text x="146" y="90" style="fill: rgba(0, 0, 0, 255);font-family:Arial;font-size:11px;text-anchor:end" dominant-baseline="middle" transform="rotate(0, 146, 90)">SD2</text>
	<line x1="40" y1="100" x2="50" y2="100" style="stroke:rgba(0, 0, 0, 255);stroke-linecap:square;stroke-width:2" />
	<text x="54" y="100" style="fill: rgba(0, 0, 0, 255);font-family:Arial;font-size:11px;text-anchor:start" dominant-baseline="middle" transform="rotate(0, 54, 100)">G2</text>
	<line x1="150" y1="100" x2="160" y2="100" style="stroke:rgba(0, 0, 0, 255);stroke-linecap:square;stroke-width:2" />
	<text x="146" y="100" style="fill: rgba(0, 0, 0, 255);font-family:Arial;font-size:11px;text-anchor:end" dominant-baseline="middle" transform="rotate(0, 146, 100)">G13</text>
	<line x1="40" y1="110" x2="50" y2="110" style="stroke:rgba(0, 0, 0, 255);stroke-linecap:square;stroke-width:2" />
	<text x="54" y="110" style="fill: rgba(0, 0, 0, 255);font-family:Arial;font-size:11px;text-anchor:start" dominant-baseline="middle" transform="rotate(0, 54, 110)">G0</text>
	<line x1="150" y1="110" x2="160" y2="110" style="stroke:rgba(0, 0, 0, 255);stroke-linecap:square;stroke-width:2" />
	<text x="146" y="110" style="fill: rgba(0, 0, 0, 255);font-family:Arial;font-size:11px;text-anchor:end" dominant-baseline="middle" transform="rotate(0, 146, 110)">GND</text>
	<line x1="40" y1="120" x2="50" y2="120" style="stroke:rgba(0, 0, 0, 255);stroke-linecap:square;stroke-width:2" />
	<text x="54" y="120" style="fill: rgba(0, 0, 0, 255);font-family:Arial;font-size:11px;text-anchor:start" dominant-baseline="middle" transform="rotate(0, 54, 120)">G4</text>
	<line x1="150" y1="120" x2="160" y2="120" style="stroke:rgba(0, 0, 0, 255);stroke-linecap:square;stroke-width:2" />
	<text x="146" y="120" style="fill: rgba(0, 0, 0, 255);font-family:Arial;font-size:11px;text-anchor:end" dominant-baseline="middle" transform="rotate(0, 146, 120)">G12</text>
	<line x1="40" y1="130" x2="50" y2="130" style="stroke:rgba(0, 0, 0, 255);stroke-linecap:square;stroke-width:2" />
	<text x="54" y="130" style="fill: rgba(0, 0, 0, 255);font-family:Arial;font-size:11px;text-anchor:start" dominant-baseline="middle" transform="rotate(0, 54, 130)">G16</text>
	<line x1="150" y1="130" x2="160" y2="130" style="stroke:rgba(0, 0, 0, 255);stroke-linecap:square;stroke-width:2" />
	<text x="146" y="130" style="fill: rgba(0, 0, 0, 255);font-family:Arial;font-size:11px;text-anchor:end" dominant-baseline="middle" transform="rotate(0, 146, 130)">G14</text>
	<line x1="40" y1="140" x2="50" y2="140" style="stroke:rgba(0, 0, 0, 255);stroke-linecap:square;stroke-width:2" />
	<text x="54" y="140" style="fill: rgba(0, 0, 0, 255);font-family:Arial;font-size:11px;text-anchor:start" dominant-baseline="middle" transform="rotate(0, 54, 140)">G17</text>
	<line x1="150" y1="140" x2="160" y2="140" style="stroke:rgba(0, 0, 0, 255);stroke-linecap:square;stroke-width:2" />
	<text x="146" y="140" style="fill: rgba(0, 0, 0, 255);font-family:Arial;font-size:11px;text-anchor:end" dominant-baseline="middle" transform="rotate(0, 146, 140)">G27</text>
	<line x1="40" y1="150" x2="50" y2="150" style="stroke:rgba(0, 0, 0, 255);stroke-linecap:square;stroke-width:2" />
	<text x="54" y="150" style="fill: rgba(0, 0, 0, 255);font-family:Arial;font-size:11px;text-anchor:start" dominant-baseline="middle" transform="rotate(0, 54, 150)">G5</text>
	<line x1="150" y1="150" x2="160" y2="150" style="stroke:rgba(0, 0, 0, 255);stroke-linecap:square;stroke-width:2" />
	<text x="146" y="150" style="fill: rgba(0, 0, 0, 255);font-family:Arial;font-size:11px;text-anchor:end" dominant-baseline="middle" transform="rotate(0, 146, 150)">G26</text>
	<line x1="40" y1="160" x2="50" y2="160" style="stroke:rgba(0, 0, 0, 255);stroke-linecap:square;stroke-width:2" />
	<text x="54" y="160" style="fill: rgba(0, 0, 0, 255);font-family:Arial;font-size:11px;text-anchor:start" dominant-baseline="middle" transform="rotate(0, 54, 160)">G18</text>
	<line x1="150" y1="160" x2="160" y2="160" style="stroke:rgba(0, 0, 0, 255);stroke-linecap:square;stroke-width:2" />
	<text x="146" y="160" style="fill: rgba(0, 0, 0, 255);font-family:Arial;font-size:11px;text-anchor:end" dominant-baseline="middle" transform="rotate(0, 146, 160)">G25</text>
	<line x1="40" y1="170" x2="50" y2="170" style="stroke:rgba(0, 0, 0, 255);stroke-linecap:square;stroke-width:2" />
	<text x="54" y="170" style="fill: rgba(0, 0, 0, 255);font-family:Arial;font-size:11px;text-anchor:start" dominant-baseline="middle" transform="rotate(0, 54, 170)">G19</text>
	<line x1="150" y1="170" x2="160" y2="170" style="stroke:rgba(0, 0, 0, 255);stroke-linecap:square;stroke-width:2" />
	<text x="146" y="170" style="fill: rgba(0, 0, 0, 255);font-family:Arial;font-size:11px;text-anchor:end" dominant-baseline="middle" transform="rotate(0, 146, 170)">G33</text>
	<line x1="40" y1="180" x2="50" y2="180" style="stroke:rgba(0, 0, 0, 255);stroke-linecap:square;stroke-width:2" />
	<text x="54" y="180" style="fill: rgba(0, 0, 0, 255);font-family:Arial;font-size:11px;text-anchor:start" dominant-baseline="middle" transform="rotate(0, 54, 180)">GND</text>
	<line x1="150" y1="180" x2="160" y2="180" style="stroke:rgba(0, 0, 0, 255);stroke-linecap:square;stroke-width:2" />
	<text x="146" y="180" style="fill: rgba(0, 0, 0, 255);font-family:Arial;font-size:11px;text-anchor:end" dominant-baseline="middle" transform="rotate(0, 146, 180)">G32</text>
	<line x1="40" y1="190" x2="50" y2="190" style="stroke:rgba(0, 0, 0, 255);stroke-linecap:square;stroke-width:2" />
	<text x="54" y="190" style="fill: rgba(0, 0, 0, 255);font-family:Arial;font-size:11px;text-anchor:start" dominant-baseline="middle" transform="rotate(0, 54, 190)">G21</text>
	<line x1="150" y1="190" x2="160" y2="190" style="stroke:rgba(0, 0, 0, 255);stroke-linecap:square;stroke-width:2" />
	<text x="146" y="190" style="fill: rgba(0, 0, 0, 255);font-family:Arial;font-size:11px;text-anchor:end" dominant-baseline="middle" transform="rotate(0, 146, 190)">G35</text>
	<line x1="40" y1="200" x2="50" y2="200" style="stroke:rgba(0, 0, 0, 255);stroke-linecap:square;stroke-width:2" />
	<text x="54" y="200" style="fill: rgba(0, 0, 0, 255);font-family:Arial;font-size:11px;text-anchor:start" dominant-baseline="middle" transform="rotate(0, 54, 200)">RXD</text>
	<line x1="150" y1="200" x2="160" y2="200" style="stroke:rgba(0, 0, 0, 255);stroke-linecap:square;stroke-width:2" />
	<text x="146" y="200" style="fill: rgba(0, 0, 0, 255);font-family:Arial;font-size:11px;text-anchor:end" dominant-baseline="middle" transform="rotate(0, 146, 200)">G34</text>
	<line x1="40" y1="210" x2="50" y2="210" style="stroke:rgba(0, 0, 0, 255);stroke-linecap:square;stroke-width:2" />
	<text x="54" y="210" style="fill: rgba(0, 0, 0, 255);font-family:Arial;font-size:11px;text-anchor:start" dominant-baseline="middle" transform="rotate(0, 54, 210)">TXD</text>
	<line x1="150" y1="210" x2="160" y2="210" style="stroke:rgba(0, 0, 0, 255);stroke-linecap:square;stroke-width:2" />
	<text x="146" y="210" style="fill: rgba(0, 0, 0, 255);font-family:Arial;font-size:11px;text-anchor:end" dominant-baseline="middle" transform="rotate(0, 146, 210)">SN</text>
	<line x1="40" y1="220" x2="50" y2="220" style="stroke:rgba(0, 0, 0, 255);stroke-linecap:square;stroke-width:2" />
	<text x="54" y="220" style="fill: rgba(0, 0, 0, 255);font-family:Arial;font-size:11px;text-anchor:start" dominant-baseline="middle" transform="rotate(0, 54, 220)">G22</text>
	<line x1="150" y1="220" x2="160" y2="220" style="stroke:rgba(0, 0, 0, 255);stroke-linecap:square;stroke-width:2" />
	<text x="146" y="220" style="fill: rgba(0, 0, 0, 255);font-family:Arial;font-size:11px;text-anchor:end" dominant-baseline="middle" transform="rotate(0, 146, 220)">SP</text>
	<line x1="40" y1="230" x2="50" y2="230" style="stroke:rgba(0, 0, 0, 255);stroke-linecap:square;stroke-width:2" />
	<text x="54" y="230" style="fill: rgba(0, 0, 0, 255);font-family:Arial;font-size:11px;text-anchor:start" dominant-baseline="middle" transform="rotate(0, 54, 230)">G23</text>
	<line x1="150" y1="230" x2="160" y2="230" style="stroke:rgba(0, 0, 0, 255);stroke-linecap:square;stroke-width:2" />
	<text x="146" y="230" style="fill: rgba(0, 0, 0, 255);font-family:Arial;font-size:11px;text-anchor:end" dominant-baseline="middle" transform="rotate(0, 146, 230)">EN</text>
	<line x1="40" y1="240" x2="50" y2="240" style="stroke:rgba(0, 0, 0, 255);stroke-linecap:square;stroke-width:2" />
	<text x="54" y="240" style="fill: rgba(0, 0, 0, 255);font-family:Arial;font-size:11px;text-anchor:start" dominant-baseline="middle" transform="rotate(0, 54, 240)">GND</text>
	<line x1="150" y1="240" x2="160" y2="240" style="stroke:rgba(0, 0, 0, 255);stroke-linecap:square;stroke-width:2" />
	<text x="146" y="240" style="fill: rgba(0, 0, 0, 255);font-family:Arial;font-size:11px;text-anchor:end" dominant-baseline="middle" transform="rotate(0, 146, 240)">3V3</text>
	<ellipse cx="220" cy="260" rx="2" ry="2" style="fill-opacity:1;fill:rgba(255, 0, 0, 255);stroke:rgba(255, 0, 0, 255);stroke-width:2" />
	<ellipse cx="210" cy="270" rx="2" ry="2" style="fill-opacity:1;fill:rgba(0, 0, 0, 255);stroke:rgba(0, 0, 0, 255);stroke-width:2" />
	<ellipse cx="250" cy="150" rx="2" ry="2" style="fill-opacity:1;fill:rgba(0, 0, 0, 255);stroke:rgba(0, 0, 0, 255);stroke-width:2" />
	<ellipse cx="260" cy="160" rx="2" ry="2" style="fill-opacity:1;fill:rgba(0, 0, 0, 255);stroke:rgba(0, 0, 0, 255);stroke-width:2" />
	<ellipse cx="210" cy="210" rx="2" ry="2" style="fill-opacity:1;fill:rgba(0, 0, 0, 255);stroke:rgba(0, 0, 0, 255);stroke-width:2" />
	<ellipse cx="220" cy="190" rx="2" ry="2" style="fill-opacity:1;fill:rgba(255, 0, 0, 255);stroke:rgba(255, 0, 0, 255);stroke-width:2" />
	<ellipse cx="210" cy="100" rx="2" ry="2" style="fill-opacity:1;fill:rgba(0, 0, 0, 255);stroke:rgba(0, 0, 0, 255);stroke-width:2" />
</svg>